<svg width="123" height="80" viewBox="0 0 123 80" fill="none" xmlns="http://www.w3.org/2000/svg">
<path d="M31.0342 70C26.5336 70 22.3688 69.3113 18.5399 67.9338C14.7782 66.5563 11.4867 64.543 8.6654 61.894C5.91128 59.245 3.76172 56.0927 2.21673 52.4371C0.73891 48.7285 0 44.5695 0 39.9603C0 35.298 0.772497 31.1391 2.31749 27.4834C3.86248 23.7748 6.04563 20.6225 8.86692 18.0265C11.6882 15.4305 15.0133 13.4437 18.8422 12.0662C22.7383 10.6887 27.0038 10 31.6388 10C36.0051 10 39.8004 10.7152 43.0247 12.1457C46.3162 13.5762 48.9696 15.1921 50.9848 16.9934L47.5589 20.0927C45.6109 18.3444 43.2934 16.9404 40.6065 15.8808C37.9867 14.8212 35.0311 14.2914 31.7395 14.2914C26.5 14.2914 21.9658 15.3245 18.1369 17.3907C14.3752 19.457 11.4531 22.4238 9.37072 26.2914C7.28834 30.106 6.24715 34.6358 6.24715 39.8808C6.24715 45.1258 7.25475 49.6821 9.26996 53.5497C11.3523 57.4172 14.2744 60.4106 18.0361 62.5298C21.7978 64.649 26.2313 65.7086 31.3365 65.7086C35.0311 65.7086 38.3226 65.1258 41.211 63.9603C44.1667 62.7417 46.9544 60.9934 49.5741 58.7152L53 61.7351C50.1787 64.3311 47.0215 66.3709 43.5285 67.8543C40.0355 69.2848 35.8707 70 31.0342 70Z" fill="black"/>
<path d="M15.1 44L20.1 29.36H21.92L26.94 44H25.18L22.54 35.7C22.26 34.86 22 34.04 21.76 33.24C21.52 32.4267 21.2733 31.5933 21.02 30.74H20.94C20.7133 31.5933 20.4733 32.4267 20.22 33.24C19.9667 34.04 19.7067 34.86 19.44 35.7L16.76 44H15.1ZM17.62 39.4V38.08H24.34V39.4H17.62Z" fill="black"/>
<path d="M37.3232 57.4126C36.4841 56.891 35.8118 56.257 35.3064 55.5104C34.8185 54.7597 34.4943 53.9616 34.3337 53.1161L35.6961 52.6878C35.8456 53.4071 36.1185 54.0837 36.5149 54.7178C36.9287 55.3478 37.4475 55.8568 38.0715 56.2446C38.8784 56.746 39.6268 56.9576 40.3167 56.8794C41.0133 56.7904 41.5488 56.4446 41.9233 55.8422C42.1974 55.4011 42.3233 54.9946 42.3009 54.6227C42.2784 54.2509 42.1701 53.8853 41.9759 53.5259C41.7816 53.1666 41.5464 52.7892 41.2701 52.3938L40.031 50.5722C39.7588 50.1943 39.5113 49.7646 39.2886 49.2831C39.0766 48.8084 38.9672 48.3004 38.9605 47.7594C38.9605 47.2075 39.1376 46.6465 39.492 46.0763C39.8664 45.4739 40.3534 45.0383 40.9529 44.7696C41.5632 44.5076 42.2229 44.418 42.932 44.5008C43.6478 44.5728 44.3554 44.8262 45.0546 45.2608C45.7647 45.7021 46.332 46.2411 46.7565 46.8778C47.1811 47.5145 47.4586 48.1717 47.5892 48.8494L46.3315 49.2533C46.2012 48.6951 45.9736 48.1734 45.6488 47.6882C45.3348 47.2096 44.8927 46.7932 44.3225 46.4388C43.634 46.0109 42.9796 45.8279 42.3595 45.8899C41.7393 45.9519 41.2554 46.2626 40.9077 46.822C40.6603 47.22 40.5586 47.6117 40.6025 47.9969C40.6465 48.3821 40.7689 48.7491 40.9698 49.0976C41.1882 49.4422 41.3992 49.7746 41.6027 50.095L42.8619 51.8843C43.1934 52.3588 43.4585 52.8441 43.6571 53.3404C43.8665 53.8434 43.955 54.3608 43.9228 54.8926C43.8973 55.4136 43.7006 55.9699 43.3329 56.5616C42.9518 57.1749 42.4427 57.634 41.8057 57.939C41.1794 58.2508 40.4802 58.368 39.708 58.2907C38.9358 58.2134 38.1408 57.9207 37.3232 57.4126Z" fill="black"/>
<path d="M11.04 36V21.36H12.7V34.6H19.18V36H11.04Z" fill="black"/>
<path d="M37.9794 49.7415C37.7952 50.7122 37.4458 51.5677 36.9314 52.3081C36.4069 53.0336 35.7792 53.6236 35.0483 54.0779L34.1579 52.9613C34.7751 52.5627 35.308 52.0644 35.7568 51.4662C36.1955 50.8533 36.4833 50.1859 36.6203 49.4642C36.7975 48.5308 36.7253 47.7564 36.4037 47.141C36.0698 46.5232 35.5543 46.1482 34.8574 46.0159C34.3472 45.9191 33.9227 45.9481 33.5839 46.1029C33.245 46.2578 32.943 46.4906 32.6777 46.8012C32.4125 47.1119 32.1452 47.4672 31.8758 47.8674L30.6229 49.6795C30.3684 50.0695 30.0567 50.4552 29.6878 50.8364C29.3212 51.2052 28.8868 51.4902 28.3845 51.6913C27.8697 51.8902 27.2825 51.927 26.623 51.8018C25.9261 51.6695 25.3443 51.3721 24.8777 50.9097C24.4135 50.4348 24.0923 49.8516 23.9141 49.1603C23.7234 48.4665 23.7049 47.7152 23.8584 46.9064C24.0143 46.085 24.3128 45.3617 24.7538 44.7363C25.1949 44.1109 25.708 43.6152 26.2931 43.2492L27.123 44.277C26.6492 44.5997 26.2445 44.9999 25.9088 45.4777C25.5755 45.943 25.3463 46.5055 25.2211 47.165C25.0699 47.9615 25.1349 48.6378 25.4161 49.194C25.6973 49.7502 26.1615 50.0897 26.8086 50.2125C27.2691 50.2999 27.6711 50.2537 28.0146 50.074C28.3581 49.8942 28.6563 49.6479 28.9091 49.3349C29.1519 49.007 29.386 48.6905 29.6116 48.3852L30.8271 46.566C31.1504 46.0858 31.5077 45.6637 31.8991 45.2997C32.2929 44.9232 32.7436 44.6542 33.2513 44.4927C33.7466 44.3288 34.3364 44.3119 35.0209 44.4418C35.7302 44.5764 36.3419 44.8859 36.8559 45.3703C37.3723 45.8422 37.7335 46.4523 37.9396 47.2005C38.1457 47.9487 38.1589 48.7957 37.9794 49.7415Z" fill="black"/>
<rect x="46.1279" y="48.4729" width="1.3" height="12.25" transform="rotate(-15.6133 46.1279 48.4729)" fill="black"/>
<path d="M61.1603 36.28C60.227 36.28 59.3536 36.12 58.5403 35.8C57.727 35.4667 57.007 34.9733 56.3803 34.32C55.767 33.6667 55.2803 32.8667 54.9203 31.92C54.5736 30.9733 54.4003 29.8867 54.4003 28.66C54.4003 27.4333 54.5803 26.3467 54.9403 25.4C55.3003 24.44 55.7936 23.6267 56.4203 22.96C57.0603 22.2933 57.7936 21.7867 58.6203 21.44C59.4603 21.0933 60.347 20.92 61.2803 20.92C62.227 20.92 63.067 21.1133 63.8003 21.5C64.547 21.8733 65.1536 22.3133 65.6203 22.82L64.0803 24.7C63.707 24.3267 63.2936 24.0267 62.8403 23.8C62.4003 23.5733 61.9003 23.46 61.3403 23.46C60.5936 23.46 59.9203 23.6667 59.3203 24.08C58.7336 24.48 58.2736 25.06 57.9403 25.82C57.607 26.58 57.4403 27.4933 57.4403 28.56C57.4403 29.64 57.5936 30.5667 57.9003 31.34C58.2203 32.1 58.667 32.6867 59.2403 33.1C59.827 33.5133 60.507 33.72 61.2803 33.72C61.9203 33.72 62.487 33.5867 62.9803 33.32C63.487 33.04 63.9336 32.6867 64.3203 32.26L65.9003 34.1C65.287 34.82 64.587 35.3667 63.8003 35.74C63.0136 36.1 62.1336 36.28 61.1603 36.28ZM68.2653 36V21.18H71.2253V33.52H77.2453V36H68.2653ZM77.713 36L82.453 21.18H85.953L90.693 36H87.573L85.473 28.28C85.2463 27.5067 85.0263 26.7067 84.813 25.88C84.613 25.04 84.3996 24.2267 84.173 23.44H84.093C83.9063 24.24 83.6996 25.0533 83.473 25.88C83.2596 26.7067 83.0463 27.5067 82.833 28.28L80.713 36H77.713ZM80.653 32.2V29.9H87.693V32.2H80.653ZM96.8455 36.28C95.8588 36.28 94.8921 36.0933 93.9455 35.72C92.9988 35.3467 92.1655 34.8133 91.4455 34.12L93.1455 32.08C93.6655 32.5733 94.2588 32.9733 94.9255 33.28C95.6055 33.5733 96.2655 33.72 96.9055 33.72C97.6788 33.72 98.2655 33.5667 98.6655 33.26C99.0655 32.9533 99.2655 32.54 99.2655 32.02C99.2655 31.6467 99.1655 31.3533 98.9655 31.14C98.7788 30.9133 98.5188 30.7133 98.1855 30.54C97.8521 30.3667 97.4655 30.1933 97.0255 30.02L95.0655 29.16C94.5721 28.96 94.0921 28.6933 93.6255 28.36C93.1721 28.0133 92.7921 27.58 92.4855 27.06C92.1921 26.54 92.0455 25.92 92.0455 25.2C92.0455 24.3867 92.2655 23.66 92.7055 23.02C93.1455 22.38 93.7521 21.8733 94.5255 21.5C95.2988 21.1133 96.1788 20.92 97.1655 20.92C98.0455 20.92 98.8921 21.0867 99.7055 21.42C100.519 21.7533 101.225 22.2267 101.825 22.84L100.325 24.68C99.8588 24.2933 99.3721 23.9933 98.8655 23.78C98.3588 23.5667 97.7921 23.46 97.1655 23.46C96.5255 23.46 96.0121 23.6 95.6255 23.88C95.2521 24.1467 95.0655 24.5267 95.0655 25.02C95.0655 25.3667 95.1721 25.6533 95.3855 25.88C95.5988 26.1067 95.8788 26.3067 96.2255 26.48C96.5721 26.64 96.9521 26.8067 97.3655 26.98L99.3055 27.76C99.9055 28 100.425 28.3 100.865 28.66C101.319 29.02 101.665 29.4533 101.905 29.96C102.159 30.4667 102.285 31.08 102.285 31.8C102.285 32.6 102.065 33.34 101.625 34.02C101.199 34.7 100.579 35.2467 99.7655 35.66C98.9655 36.0733 97.9921 36.28 96.8455 36.28ZM108.838 36.28C107.851 36.28 106.884 36.0933 105.938 35.72C104.991 35.3467 104.158 34.8133 103.438 34.12L105.138 32.08C105.658 32.5733 106.251 32.9733 106.918 33.28C107.598 33.5733 108.258 33.72 108.898 33.72C109.671 33.72 110.258 33.5667 110.658 33.26C111.058 32.9533 111.258 32.54 111.258 32.02C111.258 31.6467 111.158 31.3533 110.958 31.14C110.771 30.9133 110.511 30.7133 110.178 30.54C109.844 30.3667 109.458 30.1933 109.018 30.02L107.058 29.16C106.564 28.96 106.084 28.6933 105.618 28.36C105.164 28.0133 104.784 27.58 104.478 27.06C104.184 26.54 104.038 25.92 104.038 25.2C104.038 24.3867 104.258 23.66 104.698 23.02C105.138 22.38 105.744 21.8733 106.518 21.5C107.291 21.1133 108.171 20.92 109.158 20.92C110.038 20.92 110.884 21.0867 111.698 21.42C112.511 21.7533 113.218 22.2267 113.818 22.84L112.318 24.68C111.851 24.2933 111.364 23.9933 110.858 23.78C110.351 23.5667 109.784 23.46 109.158 23.46C108.518 23.46 108.004 23.6 107.618 23.88C107.244 24.1467 107.058 24.5267 107.058 25.02C107.058 25.3667 107.164 25.6533 107.378 25.88C107.591 26.1067 107.871 26.3067 108.218 26.48C108.564 26.64 108.944 26.8067 109.358 26.98L111.298 27.76C111.898 28 112.418 28.3 112.858 28.66C113.311 29.02 113.658 29.4533 113.898 29.96C114.151 30.4667 114.278 31.08 114.278 31.8C114.278 32.6 114.058 33.34 113.618 34.02C113.191 34.7 112.571 35.2467 111.758 35.66C110.958 36.0733 109.984 36.28 108.838 36.28ZM116.898 36V21.18H119.858V36H116.898ZM61.7614 60V45.18H66.6614C67.6747 45.18 68.5814 45.2933 69.3814 45.52C70.1947 45.7467 70.8347 46.1267 71.3014 46.66C71.7814 47.1933 72.0214 47.92 72.0214 48.84C72.0214 49.2933 71.9347 49.74 71.7614 50.18C71.6014 50.6067 71.3747 50.9867 71.0814 51.32C70.7881 51.6533 70.4281 51.9 70.0014 52.06V52.14C70.8014 52.3267 71.4614 52.7133 71.9814 53.3C72.5014 53.8733 72.7614 54.6533 72.7614 55.64C72.7614 56.6267 72.5081 57.4467 72.0014 58.1C71.5081 58.74 70.8281 59.22 69.9614 59.54C69.1081 59.8467 68.1347 60 67.0414 60H61.7614ZM64.7214 51.22H66.4614C67.3947 51.22 68.0747 51.0467 68.5014 50.7C68.9281 50.34 69.1414 49.8667 69.1414 49.28C69.1414 48.6267 68.9214 48.16 68.4814 47.88C68.0414 47.6 67.3747 47.46 66.4814 47.46H64.7214V51.22ZM64.7214 57.72H66.7814C67.7947 57.72 68.5614 57.54 69.0814 57.18C69.6147 56.8067 69.8814 56.2333 69.8814 55.46C69.8814 54.74 69.6147 54.22 69.0814 53.9C68.5614 53.5667 67.7947 53.4 66.7814 53.4H64.7214V57.72ZM73.4747 60L78.2147 45.18H81.7147L86.4547 60H83.3347L81.2347 52.28C81.008 51.5067 80.788 50.7067 80.5747 49.88C80.3747 49.04 80.1614 48.2267 79.9347 47.44H79.8547C79.668 48.24 79.4614 49.0533 79.2347 49.88C79.0214 50.7067 78.808 51.5067 78.5947 52.28L76.4747 60H73.4747ZM76.4147 56.2V53.9H83.4547V56.2H76.4147ZM88.1872 60V45.18H91.2072L95.5072 53.08L97.0072 56.28H97.1072C97.0272 55.5067 96.9405 54.66 96.8472 53.74C96.7539 52.82 96.7072 51.94 96.7072 51.1V45.18H99.5072V60H96.4872L92.2272 52.08L90.7272 48.9H90.6272C90.6939 49.7 90.7739 50.5467 90.8672 51.44C90.9605 52.3333 91.0072 53.2067 91.0072 54.06V60H88.1872ZM103.168 60V45.18H106.128V51.62H106.188L111.088 45.18H114.348L109.828 51.02L115.148 60H111.908L108.068 53.34L106.128 55.84V60H103.168Z" fill="black"/>
</svg>
